<svg width="20" height="19" viewBox="0 0 20 19" fill="none" xmlns="http://www.w3.org/2000/svg">
<path d="M20 9V18C20 18.5523 19.5523 19 19 19H18C17.4477 19 17 18.5523 17 18V17H3V18C3 18.5523 2.55228 19 2 19H1C0.44772 19 0 18.5523 0 18V9L2.4805 3.21216C2.79566 2.47679 3.51874 2 4.31879 2H7V0H13V2H15.6812C16.4813 2 17.2043 2.47679 17.5195 3.21216L20 9ZM2.17594 9H17.8241L15.6812 4H4.31879L2.17594 9ZM4.5 14C5.32843 14 6 13.3284 6 12.5C6 11.6716 5.32843 11 4.5 11C3.67157 11 3 11.6716 3 12.5C3 13.3284 3.67157 14 4.5 14ZM15.5 14C16.3284 14 17 13.3284 17 12.5C17 11.6716 16.3284 11 15.5 11C14.6716 11 14 11.6716 14 12.5C14 13.3284 14.6716 14 15.5 14Z" fill="black"/>
</svg>
