<svg width="20" height="18" viewBox="0 0 20 18" fill="none" xmlns="http://www.w3.org/2000/svg">
<path d="M17 16H3V17C3 17.5523 2.55228 18 2 18H1C0.44772 18 0 17.5523 0 17V8L2.51334 1.29775C2.80607 0.51715 3.55231 0 4.386 0H15.614C16.4477 0 17.1939 0.51715 17.4867 1.29775L20 8V17C20 17.5523 19.5523 18 19 18H18C17.4477 18 17 17.5523 17 17V16ZM2.136 8H17.864L15.614 2H4.386L2.136 8ZM4.5 13C5.32843 13 6 12.3284 6 11.5C6 10.6716 5.32843 10 4.5 10C3.67157 10 3 10.6716 3 11.5C3 12.3284 3.67157 13 4.5 13ZM15.5 13C16.3284 13 17 12.3284 17 11.5C17 10.6716 16.3284 10 15.5 10C14.6716 10 14 10.6716 14 11.5C14 12.3284 14.6716 13 15.5 13Z" fill="#ffc403"/>
</svg>
