<svg width="20" height="20" viewBox="0 0 20 20" fill="none" xmlns="http://www.w3.org/2000/svg">
<path d="M11.001 17.9381C14.9473 17.446 18.001 14.0796 18.001 10C18.001 5.58172 14.4193 2 10.001 2C5.5827 2 2.00098 5.58172 2.00098 10C2.00098 14.0796 5.05467 17.446 9.001 17.9381V12H7.00098V10H9.001V8.3458C9.001 7.00855 9.1402 6.52362 9.4017 6.03473C9.6631 5.54584 10.0468 5.16216 10.5357 4.9007C10.9184 4.69604 11.3931 4.57252 12.2227 4.51954C12.5519 4.49851 12.9781 4.52533 13.501 4.6V6.5H13.001C12.0837 6.5 11.7052 6.54332 11.4789 6.66433C11.3386 6.73939 11.2404 6.83758 11.1653 6.97793C11.0443 7.20418 11.001 7.42853 11.001 8.3458V10H13.501L13.001 12H11.001V17.9381ZM10.001 20C4.47813 20 0.000976562 15.5228 0.000976562 10C0.000976562 4.47715 4.47813 0 10.001 0C15.5238 0 20.001 4.47715 20.001 10C20.001 15.5228 15.5238 20 10.001 20Z" fill="black"/>
</svg>
