<svg width="20" height="21" viewBox="0 0 20 21" fill="none" xmlns="http://www.w3.org/2000/svg">
<path d="M9.8611 1.39057C10.8495 0.731631 12.1336 0.717971 13.1358 1.35573L17.291 3.99994H18.9998C19.5521 3.99994 19.9998 4.44766 19.9998 4.99994V13.9999C19.9998 14.5522 19.5521 14.9999 18.9998 14.9999H17.4801C17.5396 15.9472 17.0933 16.9102 16.1955 17.4489L11.1021 20.505C10.4591 20.8907 9.6609 20.8817 9.0314 20.4974C8.3311 21.1167 7.2531 21.1849 6.47104 20.5704L1.33028 16.5312C0.56387 15.9291 0.37006 14.9003 0.76579 14.0847C0.28248 13.7057 0 13.1254 0 12.5109V5C0 4.44772 0.44772 4 1 4H5.94693L9.8611 1.39057ZM2.17264 12.6452L2.86467 12.0397C4.09488 10.9632 5.96042 11.0698 7.06001 12.2794L9.7622 15.2518C10.6317 16.2083 10.7903 17.6135 10.1579 18.739L15.1665 15.7339C15.4479 15.5651 15.5497 15.2276 15.4448 14.9433L11.0177 8.74551C10.769 8.39736 10.3264 8.24598 9.9166 8.36892L7.43135 9.1145C6.37425 9.4316 5.22838 9.1427 4.44799 8.36235L4.15522 8.06958C3.58721 7.50157 3.44032 6.69318 3.67935 6H2V12.5109L2.17264 12.6452ZM12.0621 3.04306C11.728 2.83047 11.3 2.83502 10.9705 3.05467L5.56943 6.65537L5.8622 6.94814C6.12233 7.20827 6.50429 7.30456 6.85666 7.19885L9.3419 6.45327C10.5713 6.08445 11.8992 6.53859 12.6452 7.58303L16.5144 12.9999H17.9998V5.99994H17.291C16.9106 5.99994 16.5381 5.89148 16.2172 5.68727L12.0621 3.04306ZM4.18168 13.5448L2.56593 14.9586L7.70669 18.9978L8.4106 17.7659C8.6256 17.3897 8.5738 16.9178 8.2823 16.5971L5.58013 13.6247C5.2136 13.2215 4.59175 13.186 4.18168 13.5448Z" fill="#3e8e41"/>
</svg>
