<svg width="23" height="19" viewBox="0 0 23 19" fill="none" xmlns="http://www.w3.org/2000/svg">
<path d="M4.00488 7.00293C4.55717 7.00293 5.00488 7.45064 5.00488 8.00292C6.63965 8.00292 8.14352 8.56332 9.3349 9.50242L11.5049 9.50292C12.8375 9.50292 14.0348 10.0822 14.8588 11.0026L18.0049 11.0029C19.9972 11.0029 21.7173 12.1682 22.521 13.8543C20.1562 16.9749 16.3268 19.0029 12.0049 19.0029C9.2142 19.0029 6.85466 18.3997 4.944 17.345C4.80557 17.7285 4.43727 18.0029 4.00488 18.0029H1.00488C0.452603 18.0029 0.00488281 17.5552 0.00488281 17.0029V8.00292C0.00488281 7.45064 0.452603 7.00293 1.00488 7.00293H4.00488ZM5.00589 10.0029L5.00488 15.0249L5.05024 15.0574C6.84406 16.3178 9.183 17.0029 12.0049 17.0029C15.0089 17.0029 17.8035 15.8473 19.84 13.8735L19.9729 13.7399L19.8537 13.6395C19.3897 13.2765 18.8205 13.0513 18.2099 13.0098L18.0049 13.0029H15.8934C15.9664 13.3245 16.0049 13.6592 16.0049 14.0029V15.0029H7.00488V13.0029L13.7949 13.0019L13.7605 12.9234C13.38 12.1298 12.593 11.5682 11.6693 11.5082L11.5049 11.5029L8.57547 11.5028C7.66823 10.5774 6.40412 10.0032 5.00589 10.0029ZM3.00488 9.00292H2.00488V16.0029H3.00488V9.00292ZM17.0049 3.00293C18.6617 3.00293 20.0049 4.34607 20.0049 6.00293C20.0049 7.65978 18.6617 9.00292 17.0049 9.00292C15.348 9.00292 14.0049 7.65978 14.0049 6.00293C14.0049 4.34607 15.348 3.00293 17.0049 3.00293ZM17.0049 5.00293C16.4526 5.00293 16.0049 5.45064 16.0049 6.00293C16.0049 6.55521 16.4526 7.00293 17.0049 7.00293C17.5572 7.00293 18.0049 6.55521 18.0049 6.00293C18.0049 5.45064 17.5572 5.00293 17.0049 5.00293ZM10.0049 0.00292969C11.6617 0.00292969 13.0049 1.34607 13.0049 3.00293C13.0049 4.65978 11.6617 6.00293 10.0049 6.00293C8.34803 6.00293 7.00488 4.65978 7.00488 3.00293C7.00488 1.34607 8.34803 0.00292969 10.0049 0.00292969ZM10.0049 2.00293C9.4526 2.00293 9.0049 2.45064 9.0049 3.00293C9.0049 3.55521 9.4526 4.00293 10.0049 4.00293C10.5572 4.00293 11.0049 3.55521 11.0049 3.00293C11.0049 2.45064 10.5572 2.00293 10.0049 2.00293Z" fill="black"/>
</svg>
